# xmcd
#
# Track frame offsets:
# 150
# 13424
# 36686
# 65407
# 86559
# 116004
# 133760
# 166933
#
# Disc length: 2610 seconds
#
#
# Revision: 6
# Processed by: cddbd v1.5.1PL2 Copyright (c) Steve Scherf et al.
# Submitted via: FreeRIP 2.945 
#
DISCID=710a3008
DTITLE=Chuck Beattie - Festival
DYEAR=2006
DGENRE=Blues
TTITLE0=Things Ain't What They Used To Be
TTITLE1=Walking The Dog
TTITLE2=Hey Bartender
TTITLE3=Caledonia
TTITLE4=She's 19 years Old
TTITLE5=She Caught The Katy
TTITLE6=Voodoo
TTITLE7=Let The Juke Joint Jump
EXTD=ChuckBeattie.com\n
EXTT0=
EXTT1=
EXTT2=
EXTT3=
EXTT4=
EXTT5=
EXTT6=
EXTT7=
PLAYORDER=
